<?xml version="1.0" encoding="UTF-8"?>
<svg xmlns="http://www.w3.org/2000/svg" xmlns:xlink="http://www.w3.org/1999/xlink" width="2161" height="2161" viewBox="0 0 2161 2161">

<path fill-rule="nonzero" fill="rgb(100%, 98.826599%, 85.9375%)" fill-opacity="1" d="M 487.78125 469.019531 L 1692.429688 469.019531 L 1692.429688 1692.246094 L 469.199219 1692.246094 L 469.199219 469.019531 Z M 1655.261719 506.179688 L 506.363281 506.179688 L 506.363281 1655.082031 L 1655.261719 1655.082031 L 1655.261719 506.179688 "/>
<path fill-rule="evenodd" fill="rgb(100%, 69.334412%, 0%)" fill-opacity="1" d="M 728.144531 566.78125 L 752.800781 546.28125 C 752.257812 547.898438 752.941406 548.75 754.828125 548.300781 C 757.601562 547.660156 761.921875 544.46875 764.484375 541.160156 L 774.484375 528.25 L 797.710938 508.929688 L 687.296875 651.808594 C 687.019531 652.308594 686.65625 652.851562 686.214844 653.429688 L 662.617188 684.199219 C 661.777344 686.109375 662.410156 687.160156 664.460938 686.691406 C 667.234375 686.050781 671.5625 682.839844 674.125 679.53125 L 820.882812 489.660156 L 843.980469 470.460938 L 827.699219 491.488281 C 825.132812 494.800781 825.316406 496.949219 828.089844 496.308594 C 830.867188 495.660156 835.1875 492.460938 837.746094 489.160156 L 868.148438 450.359375 L 891.804688 430.691406 L 767.109375 590.089844 C 764.558594 593.390625 764.734375 595.550781 767.507812 594.898438 C 770.289062 594.261719 774.609375 591.058594 777.171875 587.761719 L 777.164062 587.761719 L 853.226562 490.480469 C 855.804688 487.179688 858.992188 486.570312 862.894531 483.328125 C 865.65625 482.691406 865.828125 484.859375 863.285156 488.148438 L 857.820312 495.199219 C 860.390625 492.011719 864.589844 488.929688 867.28125 488.308594 C 870.054688 487.660156 870.226562 489.828125 867.675781 493.128906 L 865.304688 496.199219 C 862.746094 499.5 862.917969 501.648438 865.695312 501.011719 C 868.46875 500.371094 872.789062 497.171875 875.355469 493.871094 L 937.691406 411.910156 C 940.179688 408.628906 944.589844 405.398438 947.355469 404.761719 C 950.117188 404.109375 950.199219 406.320312 947.757812 409.570312 L 867.1875 516.621094 L 867.195312 516.609375 C 864.632812 519.921875 864.8125 522.070312 867.589844 521.429688 C 870.359375 520.78125 874.691406 517.578125 877.253906 514.269531 L 925.6875 450.179688 C 928.152344 446.910156 932.585938 443.660156 935.34375 443.03125 C 938.117188 442.378906 938.289062 444.550781 935.746094 447.839844 L 926.570312 459.691406 L 926.578125 459.679688 C 924.015625 462.988281 924.195312 465.140625 926.96875 464.5 C 929.746094 463.859375 934.074219 460.660156 936.628906 457.351562 L 936.632812 457.351562 L 936.480469 457.539062 C 939.03125 454.25 943.382812 451.03125 946.148438 450.390625 C 948.914062 449.75 949.09375 451.910156 946.542969 455.210938 L 925.273438 482.671875 C 922.710938 485.980469 922.894531 488.140625 925.667969 487.488281 C 928.441406 486.851562 932.769531 483.648438 935.335938 480.339844 L 960.21875 448.148438 C 962.773438 444.859375 967.117188 441.640625 969.886719 441 C 972.648438 440.359375 972.828125 442.519531 970.28125 445.820312 L 941.085938 483.558594 C 943.621094 480.949219 946.953125 478.691406 949.21875 478.171875 C 951.992188 477.519531 952.164062 479.691406 949.621094 482.980469 L 935.246094 501.539062 L 935.25 501.53125 C 932.6875 504.839844 932.863281 507 935.648438 506.351562 C 938.417969 505.710938 942.746094 502.511719 945.300781 499.199219 L 980.019531 454.371094 C 982.566406 451.078125 986.917969 447.859375 989.679688 447.21875 C 992.445312 446.578125 992.621094 448.75 990.074219 452.039062 L 980.71875 464.121094 L 980.71875 464.128906 C 978.15625 467.429688 978.335938 469.578125 981.109375 468.941406 C 983.890625 468.289062 988.214844 465.101562 990.765625 461.800781 L 1011.28125 435.308594 L 1015.5 440.390625 L 944.835938 530.890625 L 944.84375 530.878906 C 942.277344 534.191406 942.460938 536.351562 945.234375 535.699219 C 948.011719 535.058594 952.339844 531.859375 954.894531 528.558594 L 1019.789062 445.550781 L 1024.089844 450.71875 L 1007.210938 472.53125 C 1006.691406 473.199219 1006.28125 473.828125 1005.988281 474.390625 L 1022.421875 460.730469 L 1010.699219 475.980469 C 1013.019531 474.601562 1015.550781 472.421875 1017.269531 470.191406 L 1028.359375 455.859375 L 1032.628906 460.988281 L 997.46875 506.421875 L 969.304688 542.800781 L 1062.160156 427.679688 L 1101.359375 395.089844 L 1027.75 491.011719 L 1027.761719 491 C 1023.390625 496.648438 1023.691406 500.328125 1028.429688 499.238281 C 1033.171875 498.128906 1040.550781 492.671875 1044.921875 487.03125 L 1140.640625 362.429688 L 1170.429688 337.648438 C 1171.511719 338.878906 1170.660156 341.738281 1167.800781 345.429688 L 1152.148438 365.640625 L 1152.160156 365.640625 C 1147.78125 371.28125 1148.089844 374.960938 1152.828125 373.859375 C 1157.570312 372.769531 1164.949219 367.300781 1169.320312 361.660156 L 1169.070312 361.980469 C 1173.421875 356.359375 1180.839844 350.871094 1185.570312 349.769531 C 1190.28125 348.671875 1190.609375 352.371094 1186.238281 358 L 1013.921875 579.691406 L 1013.929688 579.679688 C 1009.558594 585.328125 1009.859375 589.011719 1014.601562 587.910156 C 1019.339844 586.808594 1026.730469 581.339844 1031.101562 575.699219 L 1031.089844 575.710938 L 1175.039062 390.628906 C 1179.429688 385 1187.128906 379.171875 1191.539062 378.429688 L 1191.550781 378.421875 C 1196.269531 377.328125 1196.570312 381.03125 1192.21875 386.648438 L 1176.929688 406.398438 C 1181.25 401.929688 1186.941406 398.070312 1190.820312 397.179688 C 1195.53125 396.089844 1195.839844 399.789062 1191.488281 405.410156 L 1166.949219 437.089844 L 1166.960938 437.078125 C 1162.589844 442.730469 1162.890625 446.410156 1167.628906 445.308594 C 1172.371094 444.199219 1179.761719 438.738281 1184.121094 433.101562 L 1243.378906 356.578125 C 1247.730469 350.960938 1255.160156 345.46875 1259.871094 344.371094 C 1264.589844 343.269531 1264.839844 347 1260.550781 352.601562 L 1176.878906 461.691406 L 1176.878906 461.679688 C 1172.511719 467.328125 1172.808594 471.011719 1177.550781 469.910156 C 1182.28125 468.800781 1189.671875 463.339844 1194.039062 457.699219 L 1363.5 237.660156 C 1367.089844 232.988281 1372.859375 228.390625 1377.421875 226.351562 L 1381.96875 231.820312 C 1381.601562 232.410156 1381.160156 233.03125 1380.660156 233.671875 L 1292.03125 348.320312 L 1292.019531 348.308594 C 1287.660156 353.960938 1287.960938 357.640625 1292.699219 356.539062 C 1297.441406 355.441406 1304.820312 349.96875 1309.191406 344.328125 L 1323.21875 326.210938 C 1327.578125 320.589844 1335 315.101562 1339.730469 314 C 1344.441406 312.910156 1344.71875 316.609375 1340.398438 322.230469 L 1240.46875 451.679688 L 1240.480469 451.679688 C 1236.109375 457.320312 1236.410156 461 1241.148438 459.898438 C 1245.890625 458.800781 1253.269531 453.339844 1257.640625 447.691406 L 1335.609375 346.601562 C 1339.929688 340.980469 1347.390625 335.480469 1352.101562 334.390625 C 1356.828125 333.289062 1357.128906 336.988281 1352.769531 342.609375 L 1343.449219 354.648438 C 1347.851562 349.191406 1355.011719 343.949219 1359.601562 342.890625 C 1364.320312 341.789062 1364.628906 345.488281 1360.269531 351.109375 L 1356.21875 356.351562 L 1356.21875 356.339844 C 1351.851562 361.988281 1352.160156 365.671875 1356.890625 364.570312 C 1361.628906 363.46875 1369.019531 358.011719 1373.378906 352.359375 L 1373.378906 352.371094 L 1412.171875 302.28125 C 1416.511719 296.660156 1423.941406 291.171875 1428.660156 290.070312 C 1429.261719 289.929688 1429.800781 289.871094 1430.25 289.878906 L 1432.371094 292.441406 C 1432.171875 293.910156 1431.171875 295.929688 1429.339844 298.300781 L 1413.359375 318.929688 L 1413.359375 318.921875 C 1409 324.570312 1409.300781 328.25 1414.039062 327.148438 C 1418.78125 326.050781 1426.160156 320.578125 1430.53125 314.941406 L 1440.46875 302.171875 L 1447.761719 310.941406 L 1376.839844 402.179688 L 1376.851562 402.179688 C 1372.480469 407.820312 1372.78125 411.5 1377.511719 410.398438 C 1382.148438 409.320312 1389.308594 404.078125 1393.710938 398.570312 L 1455 319.640625 L 1462.320312 328.449219 L 1458.601562 333.261719 C 1454.230469 338.910156 1454.53125 342.578125 1459.269531 341.488281 C 1461.941406 340.859375 1465.449219 338.859375 1468.78125 336.21875 L 1476.910156 345.988281 L 1457.359375 371.230469 L 1289.761719 587.671875 C 1290.648438 588.96875 1289.761719 591.75 1287.019531 595.289062 L 1271.371094 615.5 C 1267 621.140625 1267.300781 624.820312 1272.039062 623.71875 C 1272.839844 623.539062 1273.710938 623.230469 1274.640625 622.808594 L 1343.191406 534.289062 L 1387.398438 477.199219 L 1410.949219 457.609375 L 1300.519531 601.378906 C 1302.058594 600.53125 1303.519531 599.921875 1304.78125 599.628906 C 1307.410156 599.019531 1308.660156 599.898438 1308.519531 601.75 L 1434.230469 438.25 L 1457.191406 419.160156 L 1414.070312 475.351562 L 1414.078125 475.351562 C 1411.519531 478.648438 1411.699219 480.808594 1414.46875 480.171875 C 1417.25 479.519531 1421.570312 476.320312 1424.128906 473.019531 L 1480.199219 400.019531 L 1497.660156 385.511719 C 1498.289062 386.230469 1497.789062 387.910156 1496.121094 390.058594 L 1486.949219 401.910156 C 1484.390625 405.210938 1484.570312 407.371094 1487.339844 406.71875 C 1490.121094 406.078125 1494.449219 402.878906 1497 399.570312 L 1496.859375 399.761719 C 1499.410156 396.46875 1503.761719 393.25 1506.519531 392.609375 C 1509.289062 391.96875 1509.480469 394.128906 1506.921875 397.429688 L 1405.96875 527.300781 L 1405.980469 527.289062 C 1403.410156 530.601562 1403.589844 532.761719 1406.371094 532.121094 C 1409.148438 531.46875 1413.46875 528.269531 1416.03125 524.960938 L 1500.359375 416.550781 C 1502.929688 413.25 1507.441406 409.828125 1510.019531 409.390625 L 1510.03125 409.390625 C 1512.800781 408.75 1512.96875 410.921875 1510.421875 414.210938 L 1501.460938 425.78125 C 1504 423.171875 1507.328125 420.910156 1509.601562 420.378906 C 1512.359375 419.738281 1512.539062 421.910156 1509.988281 425.199219 L 1495.621094 443.761719 C 1493.058594 447.058594 1493.238281 449.21875 1496.019531 448.578125 C 1498.789062 447.929688 1503.121094 444.730469 1505.679688 441.421875 L 1505.679688 441.429688 L 1540.390625 396.601562 C 1542.941406 393.308594 1547.289062 390.089844 1550.050781 389.441406 C 1552.820312 388.800781 1552.960938 390.980469 1550.449219 394.261719 L 1501.429688 458.171875 C 1498.871094 461.46875 1499.050781 463.628906 1501.828125 462.988281 C 1504.601562 462.339844 1508.929688 459.140625 1511.488281 455.839844 L 1610.761719 326.929688 C 1612.871094 324.191406 1616.238281 321.5 1618.910156 320.300781 L 1621.578125 323.511719 C 1621.359375 323.859375 1621.109375 324.21875 1620.820312 324.601562 L 1568.890625 391.761719 L 1568.890625 391.75 C 1566.328125 395.058594 1566.511719 397.21875 1569.28125 396.578125 C 1572.058594 395.929688 1576.378906 392.730469 1578.949219 389.421875 L 1587.171875 378.808594 C 1589.71875 375.519531 1594.070312 372.289062 1596.828125 371.648438 C 1599.601562 371.011719 1599.761719 373.179688 1597.230469 376.46875 L 1538.691406 452.308594 C 1536.128906 455.609375 1536.308594 457.769531 1539.089844 457.121094 C 1541.859375 456.480469 1546.191406 453.28125 1548.75 449.96875 L 1594.421875 390.75 C 1596.960938 387.460938 1601.320312 384.238281 1604.078125 383.589844 C 1606.851562 382.949219 1607.03125 385.121094 1604.480469 388.421875 L 1599.019531 395.46875 C 1601.589844 392.269531 1605.78125 389.199219 1608.480469 388.570312 C 1611.238281 387.929688 1611.421875 390.101562 1608.871094 393.390625 L 1606.488281 396.460938 L 1606.5 396.460938 C 1603.941406 399.761719 1604.109375 401.921875 1606.890625 401.28125 C 1609.671875 400.628906 1613.988281 397.429688 1616.550781 394.128906 L 1639.269531 364.789062 C 1641.820312 361.5 1646.171875 358.28125 1648.929688 357.628906 C 1649.289062 357.558594 1649.601562 357.519531 1649.859375 357.53125 L 1651.109375 359.019531 C 1650.988281 359.878906 1650.398438 361.070312 1649.328125 362.460938 L 1639.96875 374.539062 C 1637.410156 377.839844 1637.589844 380 1640.371094 379.359375 C 1643.140625 378.710938 1647.46875 375.511719 1650.03125 372.210938 L 1655.851562 364.71875 L 1660.121094 369.859375 L 1618.578125 423.308594 C 1616.019531 426.609375 1616.199219 428.769531 1618.96875 428.121094 C 1621.679688 427.488281 1625.878906 424.421875 1628.460938 421.199219 L 1664.359375 374.960938 L 1668.648438 380.121094 L 1666.46875 382.941406 C 1663.910156 386.238281 1664.089844 388.398438 1666.871094 387.761719 C 1668.429688 387.390625 1670.480469 386.21875 1672.441406 384.671875 L 1677.199219 390.390625 L 1665.75 405.179688 L 1524.761719 587.25 C 1526.550781 586.210938 1528.261719 585.460938 1529.699219 585.121094 C 1534.429688 584.03125 1534.671875 587.75 1530.378906 593.351562 L 1446.710938 702.441406 L 1446.710938 702.429688 C 1442.339844 708.078125 1442.640625 711.761719 1447.378906 710.660156 C 1452.121094 709.558594 1459.511719 704.101562 1463.878906 698.460938 L 1633.328125 478.410156 C 1636.929688 473.738281 1642.691406 469.140625 1647.25 467.101562 L 1651.808594 472.570312 C 1651.429688 473.171875 1650.988281 473.78125 1650.5 474.429688 L 1561.859375 589.070312 C 1557.488281 594.710938 1557.789062 598.390625 1562.53125 597.289062 C 1567.269531 596.191406 1574.648438 590.730469 1579.019531 585.089844 L 1593.058594 566.960938 C 1597.410156 561.351562 1604.828125 555.851562 1609.558594 554.75 C 1614.28125 553.660156 1614.550781 557.371094 1610.230469 562.980469 L 1510.300781 692.429688 L 1510.308594 692.429688 C 1505.941406 698.070312 1506.238281 701.75 1510.988281 700.648438 C 1515.71875 699.558594 1523.101562 694.089844 1527.46875 688.449219 L 1605.441406 587.351562 C 1609.769531 581.738281 1617.21875 576.230469 1621.929688 575.140625 C 1626.660156 574.039062 1626.96875 577.738281 1622.609375 583.371094 L 1613.289062 595.398438 C 1617.679688 589.941406 1624.839844 584.699219 1629.441406 583.640625 C 1634.148438 582.539062 1634.460938 586.25 1630.109375 591.859375 L 1626.050781 597.101562 L 1626.058594 597.101562 C 1621.679688 602.738281 1621.988281 606.421875 1626.730469 605.320312 C 1631.46875 604.230469 1638.851562 598.761719 1643.210938 593.109375 L 1643.21875 593.121094 L 1682 543.039062 C 1686.351562 537.410156 1693.78125 531.921875 1698.5 530.820312 C 1699.101562 530.691406 1699.628906 530.628906 1700.078125 530.640625 L 1702.210938 533.191406 C 1702 534.660156 1701 536.679688 1699.171875 539.050781 L 1683.191406 559.679688 L 1683.199219 559.679688 C 1678.828125 565.320312 1679.128906 569 1683.878906 567.898438 C 1688.609375 566.800781 1696 561.339844 1700.359375 555.699219 L 1710.300781 542.921875 L 1717.601562 551.691406 L 1646.671875 642.929688 L 1646.679688 642.929688 C 1642.308594 648.570312 1642.609375 652.25 1647.351562 651.148438 C 1651.980469 650.078125 1659.140625 644.828125 1663.550781 639.328125 L 1724.828125 560.398438 L 1732.148438 569.210938 L 1728.429688 574.019531 C 1724.058594 579.660156 1724.371094 583.339844 1729.109375 582.238281 C 1731.769531 581.621094 1735.28125 579.609375 1738.621094 576.96875 L 1746.738281 586.738281 L 1727.191406 611.988281 L 1607.820312 777.789062 L 1652.03125 720.699219 L 1675.578125 701.109375 L 1538.480469 879.601562 L 1538.480469 879.589844 C 1535.921875 882.898438 1536.101562 885.050781 1538.878906 884.410156 C 1541.648438 883.769531 1545.980469 880.558594 1548.539062 877.261719 L 1698.859375 681.75 L 1721.820312 662.660156 L 1678.699219 718.851562 L 1678.710938 718.851562 C 1676.148438 722.160156 1676.320312 724.308594 1679.101562 723.671875 C 1681.878906 723.019531 1686.199219 719.820312 1688.761719 716.519531 L 1744.828125 643.53125 L 1762.28125 629.011719 C 1762.921875 629.730469 1762.421875 631.410156 1760.75 633.570312 L 1751.578125 645.410156 C 1749.019531 648.710938 1749.199219 650.871094 1751.96875 650.230469 C 1754.75 649.578125 1759.078125 646.378906 1761.628906 643.070312 L 1761.488281 643.261719 C 1764.039062 639.96875 1768.390625 636.75 1771.148438 636.109375 C 1773.921875 635.46875 1774.109375 637.628906 1771.550781 640.929688 L 1670.601562 770.800781 C 1668.039062 774.109375 1668.21875 776.261719 1671 775.621094 C 1673.78125 774.96875 1678.101562 771.769531 1680.660156 768.46875 L 1764.988281 660.050781 C 1767.558594 656.75 1772.070312 653.328125 1774.648438 652.898438 L 1774.660156 652.898438 C 1777.421875 652.261719 1777.601562 654.421875 1775.050781 657.71875 L 1766.089844 669.28125 C 1768.628906 666.671875 1771.960938 664.410156 1774.230469 663.890625 C 1776.988281 663.238281 1777.171875 665.410156 1774.621094 668.699219 L 1760.25 687.261719 C 1757.691406 690.570312 1757.871094 692.71875 1760.648438 692.078125 C 1763.421875 691.429688 1767.75 688.230469 1770.308594 684.921875 L 1770.308594 684.929688 L 1805.019531 640.101562 C 1807.570312 636.808594 1811.921875 633.589844 1814.679688 632.949219 C 1817.449219 632.308594 1817.589844 634.488281 1815.078125 637.769531 L 1766.058594 701.671875 C 1763.5 704.980469 1763.679688 707.128906 1766.460938 706.488281 C 1769.230469 705.839844 1773.558594 702.640625 1776.121094 699.339844 L 1875.390625 570.429688 C 1877.488281 567.699219 1880.871094 565 1883.539062 563.808594 L 1886.210938 567.019531 C 1885.988281 567.359375 1885.730469 567.71875 1885.441406 568.101562 L 1833.519531 635.261719 C 1830.960938 638.558594 1831.140625 640.71875 1833.910156 640.078125 C 1836.691406 639.429688 1841.011719 636.230469 1843.578125 632.929688 L 1851.800781 622.308594 C 1854.339844 619.019531 1858.691406 615.800781 1861.460938 615.160156 C 1864.230469 614.519531 1864.390625 616.691406 1861.859375 619.980469 L 1803.320312 695.808594 C 1800.761719 699.109375 1800.941406 701.269531 1803.71875 700.628906 C 1806.488281 699.980469 1810.808594 696.78125 1813.378906 693.480469 L 1859.050781 634.25 C 1861.589844 630.960938 1865.949219 627.738281 1868.710938 627.101562 C 1871.480469 626.460938 1871.660156 628.621094 1869.109375 631.921875 L 1863.640625 638.96875 C 1866.21875 635.769531 1870.410156 632.699219 1873.109375 632.078125 C 1875.871094 631.429688 1876.050781 633.609375 1873.5 636.898438 L 1871.121094 639.960938 L 1871.128906 639.960938 C 1868.558594 643.269531 1868.738281 645.421875 1871.519531 644.78125 C 1874.300781 644.140625 1878.621094 640.941406 1881.179688 637.628906 L 1903.898438 608.289062 C 1906.449219 605 1910.800781 601.78125 1913.558594 601.140625 C 1913.910156 601.058594 1914.230469 601.019531 1914.488281 601.03125 L 1915.738281 602.519531 C 1915.621094 603.390625 1915.03125 604.570312 1913.960938 605.960938 L 1904.601562 618.039062 C 1902.039062 621.351562 1902.21875 623.5 1905 622.859375 C 1907.769531 622.210938 1912.101562 619.011719 1914.660156 615.710938 L 1920.480469 608.230469 L 1924.75 613.359375 L 1883.199219 666.808594 L 1883.210938 666.808594 C 1880.648438 670.121094 1880.820312 672.269531 1883.601562 671.628906 C 1886.308594 671 1890.511719 667.929688 1893.089844 664.699219 L 1928.988281 618.460938 L 1933.28125 623.621094 L 1931.101562 626.441406 C 1928.539062 629.75 1928.71875 631.898438 1931.5 631.261719 C 1933.050781 630.890625 1935.109375 629.71875 1937.070312 628.171875 L 1941.828125 633.898438 L 1930.371094 648.679688 L 1747.640625 884.679688 L 1748.078125 884.601562 C 1750.851562 883.949219 1755.179688 880.75 1757.738281 877.441406 L 1757.738281 877.449219 L 1792.449219 832.621094 C 1795 829.328125 1799.351562 826.109375 1802.109375 825.460938 C 1804.878906 824.820312 1805.019531 827 1802.511719 830.28125 L 1753.488281 894.191406 L 1753.5 894.191406 C 1750.929688 897.5 1751.109375 899.648438 1753.890625 899.011719 C 1756.660156 898.359375 1760.988281 895.160156 1763.550781 891.859375 L 1862.820312 762.949219 C 1864.929688 760.21875 1868.300781 757.519531 1870.96875 756.328125 L 1873.640625 759.53125 C 1873.429688 759.878906 1873.171875 760.238281 1872.878906 760.621094 L 1820.949219 827.78125 C 1818.390625 831.078125 1818.570312 833.238281 1821.339844 832.601562 C 1824.121094 831.949219 1828.449219 828.75 1831.011719 825.449219 L 1839.230469 814.828125 C 1841.78125 811.539062 1846.128906 808.320312 1848.890625 807.671875 C 1851.660156 807.03125 1851.820312 809.210938 1849.289062 812.5 L 1790.75 888.328125 C 1788.191406 891.628906 1788.371094 893.789062 1791.148438 893.148438 C 1793.921875 892.5 1798.25 889.300781 1800.808594 886 L 1846.480469 826.769531 C 1849.019531 823.480469 1853.378906 820.261719 1856.140625 819.621094 C 1858.910156 818.980469 1859.089844 821.140625 1856.539062 824.441406 L 1851.078125 831.488281 C 1853.648438 828.289062 1857.839844 825.21875 1860.539062 824.601562 C 1863.300781 823.949219 1863.480469 826.121094 1860.929688 829.410156 L 1858.550781 832.480469 L 1858.558594 832.480469 C 1856 835.789062 1856.179688 837.941406 1858.949219 837.300781 C 1861.730469 836.660156 1866.050781 833.460938 1868.609375 830.148438 L 1891.328125 800.808594 C 1893.878906 797.519531 1898.230469 794.300781 1901 793.660156 C 1901.351562 793.578125 1901.660156 793.539062 1901.921875 793.550781 L 1903.171875 795.039062 C 1903.050781 795.910156 1902.460938 797.089844 1901.390625 798.480469 L 1892.03125 810.558594 C 1889.480469 813.859375 1889.648438 816.019531 1892.429688 815.378906 C 1895.199219 814.730469 1899.53125 811.53125 1902.089844 808.230469 L 1907.910156 800.75 L 1912.179688 805.878906 L 1870.628906 859.328125 L 1870.640625 859.328125 C 1868.078125 862.628906 1868.261719 864.789062 1871.03125 864.148438 C 1873.738281 863.519531 1877.941406 860.441406 1880.519531 857.21875 L 1916.421875 810.980469 L 1920.710938 816.140625 L 1918.53125 818.960938 C 1915.96875 822.261719 1916.148438 824.421875 1918.929688 823.78125 C 1920.488281 823.410156 1922.539062 822.238281 1924.5 820.691406 L 1929.261719 826.410156 L 1917.808594 841.199219 L 1779.160156 1020.25 C 1779.511719 1020.578125 1780.140625 1020.671875 1781.050781 1020.460938 C 1783.828125 1019.808594 1788.148438 1016.609375 1790.710938 1013.308594 L 1790.71875 1013.308594 L 1853.050781 931.351562 C 1855.539062 928.078125 1859.949219 924.839844 1862.71875 924.199219 C 1865.480469 923.558594 1865.558594 925.761719 1863.109375 929.019531 L 1782.550781 1036.058594 C 1779.988281 1039.359375 1780.171875 1041.519531 1782.941406 1040.871094 C 1785.71875 1040.230469 1790.050781 1037.03125 1792.609375 1033.71875 L 1841.039062 969.621094 C 1843.511719 966.359375 1847.941406 963.109375 1850.699219 962.46875 C 1853.46875 961.828125 1853.648438 963.988281 1851.101562 967.289062 L 1841.929688 979.128906 C 1839.371094 982.441406 1839.550781 984.589844 1842.328125 983.941406 C 1845.101562 983.300781 1849.429688 980.101562 1851.988281 976.789062 L 1851.988281 976.800781 L 1851.839844 976.980469 C 1854.390625 973.691406 1858.738281 970.46875 1861.511719 969.828125 C 1864.269531 969.191406 1864.449219 971.359375 1861.898438 974.648438 L 1840.628906 1002.121094 C 1838.070312 1005.421875 1838.25 1007.578125 1841.019531 1006.941406 C 1843.800781 1006.289062 1848.128906 1003.089844 1850.691406 999.78125 L 1850.691406 999.789062 L 1875.578125 967.601562 C 1878.128906 964.308594 1882.480469 961.078125 1885.238281 960.441406 C 1888.011719 959.800781 1888.179688 961.96875 1885.640625 965.261719 L 1856.449219 1003 C 1858.980469 1000.390625 1862.308594 998.128906 1864.578125 997.609375 C 1867.351562 996.96875 1867.519531 999.128906 1864.980469 1002.429688 L 1850.601562 1020.980469 C 1848.050781 1024.289062 1848.21875 1026.441406 1851 1025.800781 C 1853.78125 1025.160156 1858.101562 1021.949219 1860.660156 1018.648438 L 1895.371094 973.820312 C 1897.921875 970.53125 1902.269531 967.308594 1905.039062 966.671875 C 1907.800781 966.03125 1907.980469 968.199219 1905.429688 971.488281 L 1896.070312 983.570312 L 1896.078125 983.570312 C 1893.511719 986.871094 1893.691406 989.03125 1896.46875 988.390625 C 1899.25 987.738281 1903.570312 984.539062 1906.128906 981.238281 L 1926.628906 954.761719 L 1930.859375 959.839844 L 1860.199219 1050.339844 L 1860.199219 1050.328125 C 1857.640625 1053.640625 1857.808594 1055.800781 1860.589844 1055.148438 C 1863.371094 1054.511719 1867.691406 1051.308594 1870.25 1048 L 1935.148438 964.988281 L 1939.449219 970.171875 L 1922.570312 991.96875 C 1920.011719 995.269531 1920.191406 997.429688 1922.96875 996.789062 C 1925.738281 996.140625 1930.070312 992.941406 1932.628906 989.640625 L 1943.71875 975.300781 L 1947.988281 980.441406 L 1912.828125 1025.871094 L 1884.660156 1062.238281 L 1869 1082.460938 C 1868.820312 1083.300781 1868.25 1084.410156 1867.261719 1085.679688 L 1838.070312 1123.421875 C 1840.601562 1120.808594 1843.929688 1118.550781 1846.199219 1118.019531 C 1848.96875 1117.378906 1849.148438 1119.550781 1846.601562 1122.839844 L 1832.230469 1141.398438 C 1829.671875 1144.699219 1829.851562 1146.859375 1832.628906 1146.210938 C 1835.398438 1145.570312 1839.730469 1142.371094 1842.289062 1139.058594 L 1877 1094.238281 C 1879.550781 1090.941406 1883.898438 1087.730469 1886.660156 1087.089844 C 1889.429688 1086.441406 1889.609375 1088.609375 1887.058594 1091.898438 L 1877.699219 1103.988281 C 1875.140625 1107.289062 1875.320312 1109.449219 1878.089844 1108.800781 C 1880.871094 1108.160156 1885.191406 1104.960938 1887.75 1101.648438 L 1908.261719 1075.179688 L 1912.488281 1080.261719 L 1841.820312 1170.753906 L 1841.820312 1170.746094 C 1839.261719 1174.050781 1839.441406 1176.210938 1842.21875 1175.570312 C 1844.988281 1174.921875 1849.320312 1171.722656 1851.878906 1168.414062 L 1851.878906 1168.417969 L 1916.769531 1085.410156 L 1921.070312 1090.589844 L 1904.191406 1112.390625 L 1904.199219 1112.390625 C 1901.640625 1115.691406 1901.808594 1117.851562 1904.589844 1117.199219 C 1907.371094 1116.558594 1911.691406 1113.359375 1914.25 1110.050781 L 1925.339844 1095.71875 L 1929.609375 1100.859375 L 1894.449219 1146.28125 L 1866.28125 1182.660156 L 1674.988281 1429.707031 L 1630.78125 1486.796875 L 1607.21875 1506.382812 L 1744.320312 1327.898438 C 1746.878906 1324.597656 1746.699219 1322.441406 1743.929688 1323.082031 C 1741.148438 1323.726562 1736.828125 1326.929688 1734.269531 1330.234375 L 1734.261719 1330.234375 L 1583.941406 1525.742188 L 1560.980469 1544.835938 L 1604.101562 1488.640625 L 1604.101562 1488.644531 C 1606.660156 1485.335938 1606.480469 1483.183594 1603.699219 1483.824219 C 1600.929688 1484.472656 1596.601562 1487.671875 1594.039062 1490.976562 L 1537.96875 1563.96875 L 1520.519531 1578.480469 C 1519.890625 1577.765625 1520.378906 1576.085938 1522.058594 1573.925781 L 1531.230469 1562.085938 L 1531.21875 1562.085938 C 1533.78125 1558.78125 1533.609375 1556.625 1530.828125 1557.269531 C 1528.050781 1557.910156 1523.730469 1561.117188 1521.171875 1564.421875 L 1521.308594 1564.230469 C 1518.769531 1567.523438 1514.421875 1570.742188 1511.648438 1571.386719 C 1508.890625 1572.023438 1508.699219 1569.859375 1511.261719 1566.566406 L 1612.199219 1436.691406 L 1612.199219 1436.695312 C 1614.761719 1433.390625 1614.578125 1431.230469 1611.808594 1431.875 C 1609.03125 1432.523438 1604.699219 1435.722656 1602.140625 1439.027344 L 1602.148438 1439.027344 L 1570.609375 1479.570312 L 1420.589844 1676.871094 L 1409.269531 1691.757812 L 1402.511719 1688.644531 C 1403.5 1686.355469 1404.101562 1684.066406 1404.050781 1682.464844 C 1403.949219 1679.613281 1401.820312 1679.996094 1399.300781 1683.328125 L 1397.128906 1686.164062 L 1391.039062 1683.355469 L 1426.410156 1636.710938 C 1428.859375 1633.382812 1430.738281 1628.535156 1430.640625 1625.75 C 1430.550781 1622.90625 1428.421875 1623.289062 1425.890625 1626.617188 L 1425.890625 1626.613281 L 1385.019531 1680.582031 L 1378.949219 1677.785156 L 1384.671875 1670.222656 C 1387.199219 1666.898438 1389.171875 1661.890625 1389.078125 1659.042969 C 1388.980469 1656.191406 1386.851562 1656.582031 1384.320312 1659.90625 L 1384.320312 1659.902344 L 1375.070312 1672.070312 C 1374.011719 1673.464844 1373.019531 1674.34375 1372.210938 1674.679688 L 1370.449219 1673.863281 C 1370.371094 1673.609375 1370.328125 1673.300781 1370.308594 1672.9375 C 1370.21875 1670.101562 1372.199219 1665.066406 1374.71875 1661.753906 L 1397.179688 1632.210938 C 1399.710938 1628.886719 1401.679688 1623.882812 1401.589844 1621.03125 C 1401.488281 1618.183594 1399.359375 1618.570312 1396.828125 1621.898438 L 1396.828125 1621.894531 L 1394.480469 1624.984375 C 1391.96875 1628.300781 1389.820312 1628.6875 1389.730469 1625.851562 C 1389.628906 1623.089844 1391.511719 1618.242188 1393.941406 1614.929688 L 1388.539062 1622.027344 C 1386.019531 1625.347656 1383.878906 1625.738281 1383.78125 1622.898438 C 1383.691406 1620.0625 1385.671875 1615.011719 1388.191406 1611.714844 L 1412.238281 1580.207031 C 1411.488281 1579.539062 1411.960938 1577.820312 1413.699219 1575.574219 L 1419.160156 1568.523438 C 1416.589844 1571.722656 1412.390625 1574.789062 1409.699219 1575.414062 C 1408.808594 1575.621094 1408.191406 1575.539062 1407.839844 1575.222656 L 1375.128906 1618.117188 C 1372.601562 1621.414062 1370.46875 1621.816406 1370.371094 1618.984375 C 1370.269531 1616.144531 1372.261719 1611.109375 1374.78125 1607.792969 L 1382.898438 1597.105469 C 1384.691406 1594.75 1386.199219 1591.546875 1386.898438 1588.871094 L 1378.898438 1599.203125 C 1376.359375 1602.492188 1372.011719 1605.710938 1369.238281 1606.355469 C 1368.890625 1606.4375 1368.578125 1606.472656 1368.308594 1606.464844 L 1367.921875 1606 L 1331.121094 1654.328125 C 1330.828125 1654.707031 1330.550781 1655.050781 1330.269531 1655.347656 L 1326.480469 1653.601562 C 1326.558594 1653.136719 1326.671875 1652.640625 1326.800781 1652.128906 L 1308.089844 1667.691406 L 1361.449219 1598.214844 L 1358.050781 1594.128906 L 1376.089844 1570.917969 C 1375.710938 1570.660156 1375.46875 1570.089844 1375.441406 1569.191406 L 1375.441406 1569.167969 L 1284.808594 1687.050781 L 1261.851562 1706.144531 L 1304.960938 1649.949219 L 1304.960938 1649.953125 C 1307.519531 1646.648438 1307.339844 1644.492188 1304.570312 1645.132812 C 1301.789062 1645.78125 1297.460938 1648.980469 1294.910156 1652.285156 L 1238.828125 1725.277344 L 1221.378906 1739.792969 C 1220.75 1739.074219 1221.25 1737.394531 1222.921875 1735.234375 L 1232.089844 1723.394531 L 1232.078125 1723.394531 C 1234.648438 1720.089844 1234.46875 1717.933594 1231.691406 1718.578125 C 1228.921875 1719.222656 1224.589844 1722.425781 1222.03125 1725.730469 L 1222.179688 1725.539062 C 1219.628906 1728.832031 1215.28125 1732.050781 1212.511719 1732.695312 C 1209.75 1733.335938 1209.558594 1731.171875 1212.121094 1727.875 L 1313.058594 1598.003906 L 1313.058594 1598.007812 C 1315.621094 1594.699219 1315.449219 1592.542969 1312.671875 1593.1875 C 1309.890625 1593.832031 1305.570312 1597.03125 1303 1600.335938 L 1303.011719 1600.335938 L 1218.679688 1708.753906 C 1216.109375 1712.054688 1211.601562 1715.46875 1209.011719 1715.90625 C 1206.238281 1716.546875 1206.070312 1714.378906 1208.621094 1711.085938 L 1217.570312 1699.519531 C 1215.039062 1702.136719 1211.710938 1704.394531 1209.441406 1704.917969 C 1206.679688 1705.5625 1206.5 1703.390625 1209.050781 1700.101562 L 1223.421875 1681.539062 L 1223.410156 1681.546875 C 1225.96875 1678.238281 1225.800781 1676.082031 1223.019531 1676.726562 C 1220.238281 1677.371094 1215.921875 1680.570312 1213.359375 1683.878906 L 1213.359375 1683.875 L 1178.648438 1728.703125 C 1176.101562 1731.996094 1171.75 1735.214844 1168.980469 1735.855469 C 1166.21875 1736.496094 1166.070312 1734.316406 1168.589844 1731.035156 L 1217.601562 1667.128906 L 1217.601562 1667.136719 C 1220.160156 1663.828125 1219.988281 1661.671875 1217.210938 1662.3125 C 1214.429688 1662.960938 1210.109375 1666.160156 1207.550781 1669.464844 L 1108.28125 1798.371094 C 1106.171875 1801.105469 1102.789062 1803.800781 1100.121094 1804.996094 L 1097.449219 1801.789062 C 1097.671875 1801.445312 1097.929688 1801.078125 1098.21875 1800.703125 L 1150.148438 1733.542969 L 1150.148438 1733.546875 C 1152.699219 1730.238281 1152.53125 1728.082031 1149.75 1728.726562 C 1146.980469 1729.371094 1142.648438 1732.574219 1140.089844 1735.878906 L 1131.871094 1746.496094 C 1129.320312 1749.785156 1124.96875 1753.007812 1122.199219 1753.648438 C 1119.441406 1754.289062 1119.28125 1752.117188 1121.808594 1748.828125 L 1128.800781 1739.769531 L 1122.96875 1744.621094 L 1181.859375 1668.410156 C 1181.519531 1668.058594 1180.878906 1667.960938 1179.949219 1668.175781 C 1177.179688 1668.820312 1172.851562 1672.023438 1170.289062 1675.328125 L 1124.621094 1734.550781 C 1122.878906 1736.796875 1120.300781 1739.011719 1117.949219 1740.394531 L 1099.789062 1763.894531 L 1076.691406 1783.101562 L 1092.988281 1762.0625 L 1092.980469 1762.0625 C 1095.539062 1758.757812 1095.371094 1756.597656 1092.589844 1757.246094 C 1089.808594 1757.890625 1085.488281 1761.089844 1082.929688 1764.394531 L 1052.53125 1803.191406 L 1028.878906 1822.863281 L 1073.058594 1766.382812 C 1071.988281 1767.011719 1070.96875 1767.464844 1070.101562 1767.664062 C 1069.75 1767.746094 1069.441406 1767.78125 1069.171875 1767.773438 L 1067.929688 1766.28125 C 1068.050781 1765.417969 1068.640625 1764.234375 1069.710938 1762.847656 L 1079.070312 1750.761719 L 1079.070312 1750.765625 C 1080.730469 1748.613281 1081.230469 1746.949219 1080.621094 1746.226562 L 1067.449219 1763.070312 C 1064.871094 1766.371094 1061.691406 1766.976562 1057.789062 1770.222656 C 1055.019531 1770.863281 1054.851562 1768.695312 1057.390625 1765.40625 L 1062.121094 1759.296875 L 1062.078125 1759.253906 C 1059.5 1762.109375 1055.839844 1764.679688 1053.398438 1765.246094 C 1050.628906 1765.886719 1050.449219 1763.71875 1053 1760.425781 L 1055.378906 1757.355469 C 1057.941406 1754.050781 1057.761719 1751.894531 1054.980469 1752.539062 C 1052.210938 1753.1875 1047.878906 1756.386719 1045.320312 1759.691406 L 982.984375 1841.648438 C 980.496094 1844.914062 976.085938 1848.160156 973.320312 1848.800781 C 970.554688 1849.441406 970.472656 1847.238281 972.929688 1843.980469 L 1053.121094 1737.433594 C 1052.839844 1737.421875 1052.53125 1737.460938 1052.171875 1737.546875 C 1050.609375 1737.910156 1048.550781 1739.085938 1046.601562 1740.628906 L 1044.460938 1738.054688 C 1044.089844 1738.460938 1043.738281 1738.867188 1043.429688 1739.277344 L 994.992188 1803.375 C 992.527344 1806.640625 988.09375 1809.886719 985.328125 1810.527344 C 982.5625 1811.171875 982.386719 1809.003906 984.933594 1805.710938 L 994.105469 1793.871094 L 994.101562 1793.871094 C 996.660156 1790.5625 996.484375 1788.40625 993.707031 1789.054688 C 990.933594 1789.695312 986.605469 1792.898438 984.046875 1796.203125 L 984.046875 1796.199219 L 984.195312 1796.015625 C 981.648438 1799.308594 977.296875 1802.527344 974.527344 1803.167969 C 971.765625 1803.808594 971.585938 1801.640625 974.136719 1798.351562 L 995.402344 1770.882812 C 997.964844 1767.578125 997.785156 1765.417969 995.011719 1766.0625 C 992.234375 1766.707031 987.90625 1769.90625 985.347656 1773.214844 L 985.347656 1773.210938 L 960.457031 1805.402344 C 957.90625 1808.691406 953.558594 1811.914062 950.792969 1812.554688 C 948.023438 1813.195312 947.851562 1811.027344 950.398438 1807.734375 L 979.589844 1769.996094 C 977.058594 1772.605469 973.726562 1774.867188 971.453125 1775.394531 C 968.691406 1776.03125 968.511719 1773.867188 971.0625 1770.570312 L 985.429688 1752.015625 C 987.988281 1748.714844 987.8125 1746.558594 985.035156 1747.199219 C 982.257812 1747.84375 977.929688 1751.046875 975.375 1754.351562 L 940.664062 1799.175781 C 938.113281 1802.472656 933.765625 1805.6875 931 1806.328125 C 928.234375 1806.972656 928.054688 1804.804688 930.601562 1801.511719 L 939.964844 1789.425781 L 939.960938 1789.429688 C 942.523438 1786.125 942.34375 1783.96875 939.570312 1784.609375 C 936.789062 1785.253906 932.464844 1788.457031 929.90625 1791.761719 L 909.398438 1818.238281 L 905.171875 1813.160156 L 975.839844 1722.664062 L 975.835938 1722.667969 C 977.695312 1720.265625 978.113281 1718.46875 977.132812 1717.914062 L 965.082031 1733.585938 L 947.898438 1747.875 L 900.890625 1808.007812 L 896.585938 1802.828125 L 913.464844 1781.027344 L 913.460938 1781.027344 C 916.023438 1777.726562 915.84375 1775.570312 913.070312 1776.210938 C 910.289062 1776.855469 905.96875 1780.058594 903.410156 1783.363281 L 892.316406 1797.695312 L 889.804688 1794.675781 L 886.609375 1798.839844 L 856.816406 1823.609375 C 855.734375 1822.386719 856.582031 1819.527344 859.441406 1815.839844 L 875.097656 1795.625 L 875.089844 1795.628906 C 879.460938 1789.984375 879.160156 1786.300781 874.421875 1787.40625 C 869.679688 1788.503906 862.296875 1793.96875 857.925781 1799.609375 L 858.171875 1799.285156 C 853.824219 1804.90625 846.398438 1810.398438 841.679688 1811.496094 C 836.957031 1812.59375 836.636719 1808.894531 841.007812 1803.269531 L 1013.320312 1581.578125 L 1013.320312 1581.582031 C 1017.691406 1575.9375 1017.378906 1572.253906 1012.648438 1573.359375 C 1007.910156 1574.457031 1000.519531 1579.921875 996.152344 1585.566406 L 996.152344 1585.5625 L 852.195312 1770.632812 C 847.820312 1776.265625 840.113281 1782.097656 835.699219 1782.84375 L 835.695312 1782.84375 C 830.976562 1783.941406 830.675781 1780.238281 835.027344 1774.617188 L 850.316406 1754.871094 C 845.992188 1759.328125 840.304688 1763.1875 836.433594 1764.085938 C 831.710938 1765.179688 831.410156 1761.480469 835.757812 1755.859375 L 860.289062 1724.183594 C 864.65625 1718.542969 864.355469 1714.859375 859.613281 1715.960938 C 854.875 1717.0625 847.488281 1722.527344 843.121094 1728.167969 L 783.867188 1804.6875 C 779.515625 1810.308594 772.09375 1815.800781 767.371094 1816.898438 C 762.648438 1817.992188 762.40625 1814.269531 766.699219 1808.675781 L 850.371094 1699.578125 L 850.367188 1699.585938 C 854.738281 1693.945312 854.4375 1690.261719 849.695312 1691.359375 C 844.957031 1692.460938 837.574219 1697.921875 833.203125 1703.566406 L 833.203125 1703.5625 L 663.75 1923.609375 C 660.148438 1928.28125 654.382812 1932.878906 649.824219 1934.917969 L 645.269531 1929.441406 C 645.644531 1928.855469 646.082031 1928.238281 646.582031 1927.597656 L 735.21875 1812.949219 L 735.21875 1812.953125 C 739.582031 1807.3125 739.285156 1803.628906 734.546875 1804.726562 C 729.804688 1805.828125 722.421875 1811.292969 718.054688 1816.933594 L 704.019531 1835.054688 C 699.667969 1840.679688 692.242188 1846.171875 687.523438 1847.265625 C 682.800781 1848.359375 682.519531 1844.652344 686.847656 1839.039062 L 786.773438 1709.585938 L 786.769531 1709.59375 C 791.136719 1703.949219 790.835938 1700.269531 786.097656 1701.367188 C 781.359375 1702.46875 773.972656 1707.933594 769.605469 1713.570312 L 769.601562 1713.574219 L 691.632812 1814.671875 C 687.308594 1820.28125 679.859375 1825.789062 675.140625 1826.882812 C 670.417969 1827.976562 670.117188 1824.273438 674.46875 1818.652344 L 683.789062 1806.613281 C 679.398438 1812.078125 672.238281 1817.316406 667.640625 1818.382812 C 662.921875 1819.480469 662.621094 1815.777344 666.96875 1810.15625 L 671.027344 1804.917969 L 671.023438 1804.921875 C 675.390625 1799.277344 675.089844 1795.59375 670.351562 1796.699219 C 665.609375 1797.796875 658.230469 1803.261719 653.859375 1808.902344 L 615.078125 1858.988281 C 610.726562 1864.605469 603.304688 1870.101562 598.578125 1871.195312 C 597.980469 1871.332031 597.449219 1871.398438 596.996094 1871.386719 L 594.871094 1868.832031 C 595.070312 1867.359375 596.078125 1865.335938 597.910156 1862.972656 L 613.882812 1842.339844 L 613.878906 1842.34375 C 618.246094 1836.699219 617.945312 1833.019531 613.207031 1834.121094 C 608.46875 1835.21875 601.082031 1840.683594 596.710938 1846.328125 L 596.710938 1846.324219 L 586.777344 1859.097656 L 579.484375 1850.324219 L 650.402344 1759.089844 L 650.402344 1759.09375 C 654.769531 1753.449219 654.464844 1749.769531 649.730469 1750.871094 C 645.097656 1751.945312 637.933594 1757.191406 633.539062 1762.695312 L 572.246094 1841.625 L 564.921875 1832.816406 L 568.648438 1828.003906 C 573.015625 1822.359375 572.710938 1818.683594 567.972656 1819.78125 C 565.304688 1820.398438 561.796875 1822.40625 558.460938 1825.046875 L 550.335938 1815.273438 L 569.882812 1790.03125 L 687.132812 1638.613281 C 687.003906 1637.824219 686.277344 1637.492188 684.953125 1637.800781 C 682.175781 1638.445312 677.851562 1641.644531 675.289062 1644.953125 L 675.289062 1644.949219 L 650.398438 1677.140625 C 647.851562 1680.429688 643.5 1683.652344 640.734375 1684.292969 C 637.96875 1684.933594 637.792969 1682.765625 640.339844 1679.472656 L 669.53125 1641.734375 C 667.003906 1644.34375 663.667969 1646.605469 661.398438 1647.132812 C 658.632812 1647.769531 658.453125 1645.601562 661.003906 1642.308594 L 675.371094 1623.753906 C 677.929688 1620.449219 677.757812 1618.292969 674.976562 1618.9375 C 672.203125 1619.582031 667.875 1622.785156 665.316406 1626.089844 L 630.605469 1670.914062 C 628.058594 1674.210938 623.707031 1677.425781 620.941406 1678.066406 C 618.175781 1678.710938 617.996094 1676.539062 620.546875 1673.25 L 629.90625 1661.164062 L 629.902344 1661.164062 C 632.464844 1657.859375 632.285156 1655.703125 629.511719 1656.347656 C 626.734375 1656.992188 622.40625 1660.195312 619.851562 1663.5 L 599.34375 1689.976562 L 595.117188 1684.898438 L 665.289062 1595.03125 L 647.367188 1609.933594 L 661.808594 1591.246094 C 659.632812 1592.636719 657.328125 1594.660156 655.726562 1596.738281 L 655.726562 1596.734375 L 590.832031 1679.746094 L 586.527344 1674.566406 L 603.40625 1652.765625 C 605.964844 1649.460938 605.789062 1647.308594 603.011719 1647.949219 C 600.234375 1648.59375 595.910156 1651.796875 593.351562 1655.101562 L 582.257812 1669.433594 L 579.140625 1665.683594 L 576.929688 1668.503906 L 553.273438 1688.179688 L 677.96875 1528.773438 L 677.964844 1528.773438 C 680.519531 1525.472656 680.34375 1523.316406 677.566406 1523.960938 C 674.792969 1524.605469 670.464844 1527.808594 667.90625 1531.109375 L 667.910156 1531.109375 L 591.851562 1628.382812 C 589.265625 1631.6875 586.085938 1632.292969 582.1875 1635.535156 L 582.183594 1635.535156 C 579.421875 1636.175781 579.246094 1634.007812 581.792969 1630.71875 L 587.257812 1623.664062 C 584.683594 1626.863281 580.492188 1629.933594 577.796875 1630.558594 C 575.03125 1631.199219 574.851562 1629.03125 577.402344 1625.738281 L 579.78125 1622.667969 L 579.773438 1622.671875 C 582.335938 1619.367188 582.15625 1617.210938 579.382812 1617.851562 C 576.605469 1618.5 572.28125 1621.699219 569.722656 1625.003906 L 569.71875 1625.003906 L 507.382812 1706.960938 C 504.898438 1710.230469 500.484375 1713.472656 497.71875 1714.113281 C 494.953125 1714.757812 494.871094 1712.550781 497.328125 1709.296875 L 577.886719 1602.253906 L 577.882812 1602.257812 C 580.445312 1598.953125 580.265625 1596.796875 577.492188 1597.4375 C 574.71875 1598.082031 570.390625 1601.285156 567.828125 1604.589844 L 519.394531 1668.691406 C 516.925781 1671.953125 512.492188 1675.203125 509.730469 1675.839844 C 506.964844 1676.484375 506.785156 1674.316406 509.335938 1671.023438 L 518.503906 1659.183594 L 518.5 1659.183594 C 521.0625 1655.878906 520.886719 1653.71875 518.109375 1654.367188 C 515.332031 1655.011719 511.003906 1658.210938 508.445312 1661.519531 L 508.445312 1661.515625 L 508.59375 1661.328125 C 506.046875 1664.621094 501.695312 1667.839844 498.925781 1668.480469 C 496.164062 1669.121094 495.984375 1666.953125 498.535156 1663.664062 L 519.804688 1636.195312 C 522.363281 1632.890625 522.183594 1630.730469 519.410156 1631.378906 C 516.632812 1632.023438 512.308594 1635.222656 509.746094 1638.53125 L 509.746094 1638.527344 L 484.855469 1670.71875 C 482.304688 1674.007812 477.957031 1677.230469 475.191406 1677.867188 C 472.425781 1678.511719 472.25 1676.339844 474.796875 1673.050781 L 503.988281 1635.308594 C 501.460938 1637.921875 498.125 1640.179688 495.855469 1640.707031 C 493.089844 1641.347656 492.910156 1639.179688 495.460938 1635.886719 L 509.828125 1617.332031 C 512.386719 1614.027344 512.214844 1611.871094 509.433594 1612.515625 C 506.660156 1613.15625 502.332031 1616.363281 499.773438 1619.664062 L 465.0625 1664.492188 C 462.515625 1667.785156 458.164062 1671.003906 455.398438 1671.644531 C 452.632812 1672.289062 452.453125 1670.117188 455.003906 1666.828125 L 464.363281 1654.742188 L 464.359375 1654.742188 C 466.921875 1651.4375 466.742188 1649.28125 463.96875 1649.925781 C 461.1875 1650.570312 456.867188 1653.773438 454.308594 1657.074219 L 433.800781 1683.554688 L 429.574219 1678.472656 L 500.238281 1587.976562 L 500.234375 1587.980469 C 502.796875 1584.675781 502.621094 1582.515625 499.839844 1583.160156 C 497.066406 1583.808594 492.742188 1587.007812 490.183594 1590.316406 L 490.179688 1590.3125 L 425.289062 1673.320312 L 420.984375 1668.140625 L 437.863281 1646.34375 L 437.859375 1646.34375 C 440.421875 1643.039062 440.242188 1640.882812 437.46875 1641.527344 C 434.691406 1642.171875 430.367188 1645.371094 427.808594 1648.675781 L 416.714844 1663.007812 L 412.445312 1657.875 L 447.609375 1612.445312 L 475.777344 1576.070312 L 644.492188 1358.183594 L 631.242188 1369.203125 L 588.898438 1424.109375 C 584.570312 1429.722656 577.125 1435.226562 572.402344 1436.320312 C 567.679688 1437.414062 567.378906 1433.710938 571.730469 1428.09375 L 581.054688 1416.050781 C 576.660156 1421.515625 569.5 1426.753906 564.90625 1427.824219 C 563.15625 1428.230469 562.011719 1427.972656 561.488281 1427.203125 L 535.660156 1448.679688 L 563.476562 1412.765625 L 563.46875 1412.765625 C 565.507812 1410.136719 566.523438 1407.929688 566.554688 1406.4375 C 561.832031 1408.019531 555.179688 1413.105469 551.125 1418.339844 L 512.339844 1468.425781 C 508.144531 1473.84375 501.089844 1479.148438 496.351562 1480.5 L 494.414062 1482.976562 L 454.035156 1516.554688 L 511.246094 1443.414062 C 511.003906 1443.445312 510.746094 1443.496094 510.46875 1443.558594 C 505.730469 1444.65625 498.34375 1450.121094 493.972656 1455.765625 L 493.972656 1455.761719 L 484.039062 1468.535156 L 476.746094 1459.761719 L 502.316406 1426.871094 C 498.652344 1427.164062 498.726562 1423.628906 502.71875 1418.476562 L 512.042969 1406.429688 C 507.648438 1411.890625 500.492188 1417.136719 495.894531 1418.199219 C 495.539062 1418.285156 495.207031 1418.339844 494.898438 1418.367188 L 469.507812 1451.0625 L 462.1875 1442.253906 L 465.914062 1437.441406 C 469.789062 1432.429688 469.988281 1428.96875 466.664062 1429.027344 L 375.695312 1548.617188 C 371.453125 1554.203125 363.921875 1559.738281 359.203125 1560.828125 C 354.480469 1561.929688 354.34375 1558.164062 358.53125 1552.605469 L 451.371094 1429.253906 L 447.597656 1424.710938 L 467.148438 1399.472656 L 496.5625 1361.480469 C 496.207031 1361.503906 495.808594 1361.5625 495.375 1361.664062 C 490.636719 1362.757812 483.253906 1368.230469 478.878906 1373.871094 L 396.199219 1483.289062 C 391.988281 1488.859375 384.421875 1494.402344 379.703125 1495.496094 C 374.980469 1496.597656 374.679688 1492.898438 379.027344 1487.273438 L 394.679688 1467.0625 L 394.675781 1467.0625 C 399.046875 1461.421875 398.746094 1457.734375 394.007812 1458.84375 C 389.269531 1459.9375 381.882812 1465.402344 377.511719 1471.050781 L 377.511719 1471.042969 L 377.765625 1470.722656 C 373.414062 1476.347656 365.988281 1481.839844 361.265625 1482.933594 C 356.546875 1484.023438 356.242188 1480.324219 360.59375 1474.710938 L 396.898438 1427.820312 C 401.269531 1422.179688 400.964844 1418.492188 396.230469 1419.597656 C 391.484375 1420.695312 384.101562 1426.160156 379.734375 1431.804688 L 379.734375 1431.800781 L 337.246094 1486.75 C 332.890625 1492.367188 325.46875 1497.867188 320.75 1498.960938 C 316.023438 1500.050781 315.726562 1496.351562 320.070312 1490.730469 L 369.902344 1426.308594 C 365.585938 1430.765625 359.894531 1434.621094 356.015625 1435.523438 C 351.296875 1436.617188 350.996094 1432.914062 355.34375 1427.292969 L 379.875 1395.617188 C 384.242188 1389.976562 383.941406 1386.296875 379.203125 1387.398438 C 374.460938 1388.492188 367.078125 1393.964844 362.710938 1399.605469 L 303.457031 1476.121094 C 299.105469 1481.746094 291.679688 1487.238281 286.964844 1488.332031 C 282.238281 1489.429688 281.933594 1485.722656 286.285156 1480.109375 L 302.261719 1459.480469 L 302.257812 1459.480469 C 306.632812 1453.839844 306.324219 1450.160156 301.585938 1451.257812 C 296.84375 1452.355469 289.464844 1457.824219 285.097656 1463.464844 L 250.089844 1508.664062 L 242.878906 1499.992188 L 363.5 1345.511719 L 363.496094 1345.519531 C 367.867188 1339.878906 367.566406 1336.191406 362.824219 1337.289062 C 358.089844 1338.394531 350.707031 1343.855469 346.335938 1349.5 L 346.335938 1349.496094 L 235.5625 1491.195312 L 228.214844 1482.355469 L 257.027344 1445.140625 L 257.023438 1445.140625 C 261.394531 1439.503906 261.09375 1435.820312 256.355469 1436.921875 C 251.609375 1438.019531 244.230469 1443.488281 239.863281 1449.128906 L 220.925781 1473.589844 L 213.640625 1464.824219 L 273.660156 1387.28125 L 321.746094 1325.183594 L 393.257812 1232.828125 C 392.628906 1233.128906 392.027344 1233.351562 391.488281 1233.480469 C 388.726562 1234.117188 388.570312 1231.945312 391.105469 1228.660156 L 449.636719 1152.820312 C 452.191406 1149.519531 452.023438 1147.359375 449.246094 1148 C 446.460938 1148.648438 442.132812 1151.851562 439.574219 1155.160156 L 393.902344 1214.382812 C 391.367188 1217.667969 387.007812 1220.894531 384.246094 1221.53125 C 381.476562 1222.175781 381.300781 1220.007812 383.847656 1216.71875 L 389.308594 1209.660156 C 386.742188 1212.863281 382.539062 1215.933594 379.847656 1216.554688 C 377.085938 1217.195312 376.902344 1215.03125 379.457031 1211.742188 L 381.835938 1208.667969 C 384.390625 1205.363281 384.214844 1203.203125 381.433594 1203.855469 C 378.65625 1204.496094 374.335938 1207.695312 371.773438 1211 L 349.058594 1240.339844 C 346.507812 1243.636719 342.15625 1246.851562 339.394531 1247.492188 C 339.042969 1247.574219 338.726562 1247.617188 338.464844 1247.609375 L 337.21875 1246.109375 C 337.332031 1245.25 337.921875 1244.0625 338.996094 1242.675781 L 348.355469 1230.589844 L 348.347656 1230.59375 C 350.910156 1227.285156 350.738281 1225.128906 347.964844 1225.773438 C 345.183594 1226.417969 340.863281 1229.617188 338.296875 1232.925781 L 332.476562 1240.410156 L 328.203125 1235.269531 L 369.75 1181.820312 C 372.308594 1178.519531 372.128906 1176.363281 369.351562 1177.007812 C 366.640625 1177.636719 362.445312 1180.703125 359.867188 1183.933594 L 323.964844 1230.175781 L 319.671875 1225.011719 L 321.855469 1222.195312 C 324.410156 1218.894531 324.234375 1216.730469 321.460938 1217.375 C 319.894531 1217.738281 317.84375 1218.914062 315.890625 1220.464844 L 311.128906 1214.738281 L 322.585938 1199.949219 L 484.214844 991.210938 C 482.578125 992.460938 480.988281 993.988281 479.789062 995.539062 L 479.792969 995.539062 L 403.734375 1092.808594 C 401.148438 1096.109375 397.96875 1096.71875 394.070312 1099.960938 L 394.066406 1099.960938 C 391.304688 1100.601562 391.128906 1098.441406 393.675781 1095.148438 L 399.140625 1088.089844 C 396.5625 1091.289062 392.371094 1094.359375 389.679688 1094.988281 C 386.914062 1095.628906 386.734375 1093.460938 389.285156 1090.171875 L 391.660156 1087.101562 L 391.65625 1087.101562 C 394.21875 1083.789062 394.039062 1081.640625 391.265625 1082.28125 C 388.488281 1082.929688 384.164062 1086.128906 381.605469 1089.429688 L 381.601562 1089.429688 L 319.265625 1171.386719 C 316.78125 1174.65625 312.367188 1177.898438 309.601562 1178.539062 C 306.835938 1179.183594 306.753906 1176.980469 309.210938 1173.722656 L 389.769531 1066.679688 L 389.765625 1066.679688 C 392.328125 1063.378906 392.148438 1061.21875 389.371094 1061.871094 C 386.597656 1062.511719 382.273438 1065.710938 379.710938 1069.019531 L 331.273438 1133.121094 C 328.808594 1136.378906 324.375 1139.628906 321.613281 1140.269531 C 318.84375 1140.910156 318.667969 1138.75 321.214844 1135.449219 L 330.386719 1123.609375 L 330.382812 1123.609375 C 332.941406 1120.300781 332.765625 1118.148438 329.988281 1118.789062 C 327.214844 1119.441406 322.886719 1122.640625 320.328125 1125.949219 L 320.328125 1125.941406 L 320.476562 1125.761719 C 317.929688 1129.050781 313.578125 1132.269531 310.808594 1132.910156 C 308.046875 1133.550781 307.867188 1131.378906 310.417969 1128.089844 L 331.683594 1100.621094 C 334.246094 1097.320312 334.066406 1095.160156 331.292969 1095.808594 C 328.515625 1096.449219 324.1875 1099.648438 321.628906 1102.960938 L 321.628906 1102.949219 L 296.738281 1135.140625 C 294.1875 1138.429688 289.839844 1141.660156 287.074219 1142.300781 C 284.308594 1142.941406 284.132812 1140.769531 286.679688 1137.480469 L 315.871094 1099.738281 C 313.339844 1102.351562 310.007812 1104.609375 307.734375 1105.128906 C 304.972656 1105.769531 304.792969 1103.609375 307.34375 1100.308594 L 321.710938 1081.761719 C 324.269531 1078.449219 324.09375 1076.300781 321.316406 1076.941406 C 318.539062 1077.578125 314.214844 1080.789062 311.65625 1084.089844 L 276.945312 1128.921875 C 274.398438 1132.210938 270.046875 1135.429688 267.28125 1136.070312 C 264.515625 1136.710938 264.335938 1134.539062 266.886719 1131.25 L 276.246094 1119.171875 L 276.242188 1119.171875 C 278.804688 1115.859375 278.625 1113.710938 275.851562 1114.351562 C 273.070312 1115 268.746094 1118.199219 266.1875 1121.5 L 245.683594 1147.980469 L 241.453125 1142.898438 L 312.117188 1052.398438 L 312.117188 1052.410156 C 314.679688 1049.101562 314.503906 1046.941406 311.722656 1047.589844 C 308.949219 1048.230469 304.625 1051.429688 302.0625 1054.738281 L 237.171875 1137.75 L 232.867188 1132.570312 L 249.746094 1110.769531 L 249.742188 1110.769531 C 252.304688 1107.46875 252.125 1105.308594 249.351562 1105.949219 C 246.574219 1106.601562 242.25 1109.800781 239.691406 1113.101562 L 228.597656 1127.441406 L 224.328125 1122.300781 L 259.492188 1076.871094 L 287.660156 1040.5 L 478.953125 793.449219 L 523.164062 736.359375 L 546.71875 716.769531 L 409.617188 895.261719 L 409.621094 895.261719 C 407.058594 898.558594 407.238281 900.71875 410.011719 900.070312 C 412.789062 899.429688 417.113281 896.230469 419.671875 892.921875 L 419.675781 892.921875 L 569.996094 697.421875 L 592.957031 678.320312 L 549.839844 734.519531 L 549.84375 734.511719 C 547.28125 737.820312 547.460938 739.96875 550.234375 739.328125 C 553.015625 738.679688 557.339844 735.480469 559.898438 732.179688 L 615.96875 659.191406 L 633.421875 644.671875 C 634.054688 645.390625 633.554688 647.070312 631.882812 649.230469 L 622.714844 661.070312 L 622.71875 661.070312 C 620.15625 664.371094 620.332031 666.53125 623.109375 665.890625 C 625.886719 665.238281 630.214844 662.039062 632.773438 658.738281 L 632.628906 658.929688 C 635.171875 655.628906 639.523438 652.421875 642.289062 651.769531 C 645.054688 651.128906 645.242188 653.300781 642.683594 656.589844 L 541.738281 786.460938 L 541.742188 786.460938 C 539.179688 789.769531 539.355469 791.921875 542.136719 791.28125 C 544.914062 790.628906 549.238281 787.429688 551.796875 784.128906 L 636.128906 675.710938 C 638.695312 672.410156 643.207031 669 645.789062 668.558594 L 645.792969 668.558594 C 647.621094 668.128906 648.320312 668.929688 647.84375 670.480469 L 683.933594 623.871094 L 726.125 569.378906 Z M 598.289062 1430.109375 L 684.035156 1319.023438 L 684.03125 1319.027344 C 684.738281 1318.121094 685.316406 1317.261719 685.78125 1316.464844 L 685.492188 1316.589844 L 598.289062 1430.109375 "/>
<path fill-rule="evenodd" fill="rgb(100%, 98.826599%, 85.9375%)" fill-opacity="1" d="M 469.207031 469.019531 L 1381.640625 469.019531 L 1352.859375 506.179688 L 469.207031 506.179688 L 469.207031 469.019531 "/>
<path fill-rule="evenodd" fill="rgb(100%, 98.826599%, 85.9375%)" fill-opacity="1" d="M 506.367188 469.019531 L 506.367188 1412.148438 L 469.199219 1451.066406 L 469.199219 469.019531 L 506.367188 469.019531 "/>
<path fill-rule="evenodd" fill="rgb(100%, 98.826599%, 85.9375%)" fill-opacity="1" d="M 1692.429688 1655.078125 L 956.1875 1655.078125 L 927.300781 1692.246094 L 1692.429688 1692.246094 L 1692.429688 1655.078125 "/>
<path fill-rule="evenodd" fill="rgb(0%, 0%, 0%)" fill-opacity="1" d="M 807.21875 1041 C 787.632812 1044.53125 771.3125 1043.890625 758.261719 1039.058594 C 745.203125 1034.238281 735.347656 1025.179688 728.691406 1011.890625 C 722.03125 998.609375 718.179688 980.828125 717.132812 958.558594 L 772.753906 939.121094 C 773.273438 952.078125 774.644531 962.730469 776.863281 971.078125 C 779.085938 979.429688 782.476562 985.339844 787.046875 988.820312 C 791.617188 992.308594 797.296875 993.441406 804.085938 992.210938 C 812.441406 990.699219 818.121094 987.070312 821.125 981.300781 C 824.128906 975.539062 825.625 969.261719 825.625 962.46875 C 825.625 949.160156 822.429688 938.570312 816.03125 930.71875 C 809.632812 922.871094 801.210938 915.308594 790.765625 908.058594 L 757.867188 885.410156 C 746.117188 877.609375 736.523438 868.109375 729.078125 856.921875 C 721.640625 845.730469 717.921875 831 717.921875 812.71875 C 717.921875 786.609375 725.558594 765.191406 740.832031 748.460938 C 756.105469 731.738281 777.0625 720.96875 803.691406 716.160156 C 819.621094 713.289062 832.675781 713.539062 842.859375 716.921875 C 853.039062 720.308594 860.941406 725.871094 866.554688 733.601562 C 872.167969 741.328125 876.085938 750.160156 878.304688 760.070312 C 880.523438 769.980469 881.894531 779.980469 882.417969 790.070312 L 827.191406 808.269531 C 826.671875 798.699219 825.820312 790.371094 824.644531 783.269531 C 823.46875 776.171875 821.125 770.851562 817.597656 767.308594 C 814.070312 763.769531 808.785156 762.628906 801.734375 763.910156 C 794.164062 765.269531 788.550781 769.101562 784.894531 775.371094 C 781.238281 781.640625 779.410156 788.171875 779.410156 794.960938 C 779.410156 806.191406 781.953125 814.929688 787.046875 821.191406 C 792.140625 827.460938 799.125 833.699219 808.003906 839.929688 L 840.117188 862.339844 C 853.433594 871.421875 864.855469 882.480469 874.386719 895.511719 C 883.921875 908.539062 888.683594 925.890625 888.683594 947.558594 C 888.683594 962.449219 885.289062 976.511719 878.5 989.738281 C 871.710938 1002.980469 862.246094 1014.089844 850.105469 1023.070312 C 837.960938 1032.050781 823.667969 1038.03125 807.21875 1041 Z M 952.523438 1010.460938 L 952.523438 741.378906 L 903.570312 750.21875 L 903.570312 702.050781 L 1065.71875 672.769531 L 1065.71875 720.949219 L 1017.539062 729.640625 L 1017.539062 998.71875 Z M 1067.289062 989.738281 L 1128.769531 661.390625 L 1200.449219 648.449219 L 1261.550781 954.671875 L 1201.621094 965.488281 L 1190.261719 897.820312 L 1140.128906 906.871094 L 1127.988281 978.78125 Z M 1146.011719 866.25 L 1184 859.390625 L 1164.808594 734.78125 Z M 1321.078125 943.921875 L 1321.078125 818.191406 L 1259.199219 637.839844 L 1319.898438 626.878906 L 1353.980469 732.351562 L 1385.699219 615 L 1444.449219 604.398438 L 1383.359375 806.949219 L 1383.359375 932.671875 L 1321.078125 943.921875 "/>
<path fill-rule="evenodd" fill="rgb(0%, 0%, 0%)" fill-opacity="1" d="M 750.660156 1325.195312 L 750.660156 1125.460938 L 714.320312 1132.019531 L 714.320312 1096.261719 L 834.683594 1074.53125 L 834.683594 1110.289062 L 798.921875 1116.75 L 798.921875 1316.480469 Z M 922.195312 1297.425781 C 904.359375 1300.644531 890.503906 1300.09375 880.621094 1295.769531 C 870.734375 1291.449219 863.804688 1283.882812 859.832031 1273.070312 C 855.859375 1262.25 853.871094 1248.609375 853.871094 1232.132812 L 853.871094 1071.070312 L 901.261719 1062.511719 L 901.261719 1230.265625 C 901.261719 1236.078125 901.695312 1241.71875 902.570312 1247.183594 C 903.4375 1252.644531 905.378906 1256.851562 908.382812 1259.796875 C 911.386719 1262.742188 915.992188 1263.65625 922.195312 1262.535156 C 928.589844 1261.382812 933.289062 1258.789062 936.292969 1254.757812 C 939.296875 1250.730469 941.1875 1245.832031 941.960938 1240.070312 C 942.738281 1234.308594 943.121094 1228.523438 943.121094 1222.710938 L 943.121094 1054.960938 L 990.515625 1046.398438 L 990.515625 1207.464844 C 990.515625 1223.9375 988.527344 1238.300781 984.554688 1250.554688 C 980.582031 1262.804688 973.652344 1272.871094 963.765625 1280.757812 C 953.882812 1288.652344 940.023438 1294.203125 922.195312 1297.425781 Z M 1023.949219 1275.855469 L 1023.949219 1040.371094 L 1057.378906 1034.328125 L 1109.710938 1147.570312 L 1109.710938 1024.878906 L 1149.25 1017.738281 L 1149.25 1253.234375 L 1117.269531 1259.011719 L 1064.941406 1138.210938 L 1064.941406 1268.453125 Z M 1185.011719 1246.78125 L 1185.011719 1011.289062 L 1287.640625 992.761719 L 1287.640625 1025.898438 L 1232.980469 1035.769531 L 1232.980469 1098.28125 L 1275.140625 1090.660156 L 1275.140625 1124.101562 L 1232.980469 1131.710938 L 1232.980469 1205.558594 L 1288.21875 1195.585938 L 1288.21875 1228.148438 Z M 1312.351562 1223.789062 L 1312.351562 988.300781 L 1369.910156 977.898438 C 1389.878906 974.300781 1405.429688 974.058594 1416.578125 977.179688 C 1427.71875 980.308594 1435.621094 986.929688 1440.269531 997.039062 C 1444.921875 1007.148438 1447.25 1020.730469 1447.25 1037.789062 L 1447.25 1123.558594 C 1447.25 1141 1444.921875 1155.761719 1440.269531 1167.839844 C 1435.621094 1179.921875 1427.820312 1189.617188 1416.871094 1196.925781 C 1405.921875 1204.230469 1390.660156 1209.652344 1371.078125 1213.1875 Z M 1360.320312 1181.695312 L 1370.5 1179.855469 C 1379.410156 1178.246094 1385.761719 1175.695312 1389.539062 1172.203125 C 1393.320312 1168.710938 1395.699219 1164.117188 1396.660156 1158.421875 C 1397.628906 1152.71875 1398.121094 1145.800781 1398.121094 1137.660156 L 1398.121094 1040.550781 C 1398.121094 1032.410156 1397.488281 1025.988281 1396.230469 1021.269531 C 1394.96875 1016.550781 1392.449219 1013.378906 1388.671875 1011.730469 C 1384.890625 1010.089844 1378.738281 1010.039062 1370.210938 1011.578125 L 1360.320312 1013.359375 L 1360.320312 1181.695312 "/>
<path fill-rule="evenodd" fill="rgb(0%, 0%, 0%)" fill-opacity="1" d="M 695.1875 1408.421875 L 1466.429688 1269.183594 L 1466.429688 1417.632812 L 695.1875 1556.867188 L 695.1875 1408.421875 "/>
<path fill-rule="evenodd" fill="rgb(100%, 98.826599%, 85.9375%)" fill-opacity="1" d="M 800.339844 1512.730469 C 793.753906 1513.917969 788.539062 1513.609375 784.695312 1511.816406 C 780.851562 1510.023438 778.160156 1507.050781 776.621094 1502.898438 C 775.082031 1498.746094 774.316406 1493.738281 774.316406 1487.886719 L 774.316406 1455.925781 C 774.316406 1449.777344 775.082031 1444.347656 776.621094 1439.644531 C 778.160156 1434.933594 780.851562 1431.027344 784.695312 1427.921875 C 788.539062 1424.808594 793.753906 1422.660156 800.339844 1421.472656 C 806.710938 1420.320312 811.710938 1420.480469 815.332031 1421.953125 C 818.957031 1423.414062 821.515625 1425.960938 823.019531 1429.5625 C 824.519531 1433.171875 825.269531 1437.542969 825.269531 1442.667969 L 825.269531 1450.132812 L 807.695312 1453.304688 L 807.695312 1444.960938 C 807.695312 1442.910156 807.589844 1441.007812 807.371094 1439.25 C 807.148438 1437.503906 806.546875 1436.148438 805.554688 1435.1875 C 804.570312 1434.230469 802.867188 1433.972656 800.449219 1434.40625 C 798.035156 1434.84375 796.28125 1435.746094 795.179688 1437.117188 C 794.085938 1438.484375 793.386719 1440.132812 793.09375 1442.054688 C 792.800781 1443.96875 792.652344 1446.066406 792.652344 1448.335938 L 792.652344 1488.75 C 792.652344 1491.238281 792.855469 1493.378906 793.257812 1495.175781 C 793.660156 1496.964844 794.429688 1498.257812 795.5625 1499.039062 C 796.699219 1499.820312 798.328125 1500.023438 800.449219 1499.636719 C 802.796875 1499.214844 804.460938 1498.347656 805.445312 1497.03125 C 806.433594 1495.722656 807.058594 1494.09375 807.3125 1492.144531 C 807.570312 1490.191406 807.695312 1488.152344 807.695312 1486.03125 L 807.695312 1477.355469 L 825.269531 1474.183594 L 825.269531 1481.542969 C 825.269531 1486.738281 824.539062 1491.464844 823.074219 1495.722656 C 821.609375 1499.976562 819.082031 1503.578125 815.496094 1506.535156 C 811.910156 1509.488281 806.859375 1511.554688 800.339844 1512.730469 Z M 861.179688 1501.746094 C 854.667969 1502.921875 849.507812 1502.683594 845.695312 1501.027344 C 841.890625 1499.367188 839.164062 1496.511719 837.515625 1492.453125 C 835.867188 1488.394531 835.046875 1483.328125 835.046875 1477.253906 L 835.046875 1444.085938 C 835.046875 1438.011719 835.867188 1432.664062 837.515625 1428.046875 C 839.164062 1423.429688 841.890625 1419.644531 845.695312 1416.6875 C 849.507812 1413.730469 854.667969 1411.664062 861.179688 1410.488281 C 867.773438 1409.296875 872.984375 1409.507812 876.828125 1411.117188 C 880.671875 1412.734375 883.417969 1415.53125 885.066406 1419.519531 C 886.714844 1423.503906 887.539062 1428.535156 887.539062 1434.609375 L 887.539062 1467.773438 C 887.539062 1473.851562 886.714844 1479.21875 885.066406 1483.871094 C 883.417969 1488.523438 880.671875 1492.363281 876.828125 1495.40625 C 872.984375 1498.441406 867.773438 1500.554688 861.179688 1501.746094 Z M 861.179688 1488.675781 C 863.523438 1488.253906 865.246094 1487.40625 866.34375 1486.152344 C 867.441406 1484.894531 868.171875 1483.335938 868.539062 1481.472656 C 868.90625 1479.613281 869.089844 1477.652344 869.089844 1475.605469 L 869.089844 1433.546875 C 869.089844 1431.496094 868.90625 1429.628906 868.539062 1427.9375 C 868.171875 1426.246094 867.441406 1424.972656 866.34375 1424.105469 C 865.246094 1423.238281 863.523438 1423.023438 861.179688 1423.445312 C 858.984375 1423.84375 857.339844 1424.671875 856.242188 1425.929688 C 855.140625 1427.191406 854.40625 1428.730469 854.042969 1430.554688 C 853.675781 1432.378906 853.496094 1434.3125 853.496094 1436.359375 L 853.496094 1478.421875 C 853.496094 1480.46875 853.660156 1482.363281 853.988281 1484.101562 C 854.316406 1485.835938 855.03125 1487.132812 856.132812 1487.996094 C 857.226562 1488.855469 858.914062 1489.085938 861.179688 1488.675781 Z M 899.285156 1493.65625 L 900.820312 1404.429688 L 920.039062 1400.960938 L 931.023438 1455.089844 L 942.773438 1396.855469 L 961.328125 1393.507812 L 962.867188 1482.175781 L 949.6875 1484.554688 L 948.265625 1424.523438 L 936.953125 1486.855469 L 925.640625 1488.898438 L 913.78125 1430.308594 L 912.574219 1491.257812 Z M 975.167969 1479.960938 L 975.167969 1391.007812 L 993.179688 1387.753906 L 993.179688 1476.703125 Z M 1006.800781 1474.246094 L 1006.800781 1385.296875 L 1019.429688 1383.015625 L 1039.191406 1425.789062 L 1039.191406 1379.449219 L 1054.128906 1376.753906 L 1054.128906 1465.699219 L 1042.050781 1467.882812 L 1022.28125 1422.253906 L 1022.28125 1471.453125 Z M 1090.371094 1460.476562 C 1084.359375 1461.558594 1079.609375 1461.160156 1076.089844 1459.265625 C 1072.578125 1457.371094 1070.070312 1454.242188 1068.570312 1449.863281 C 1067.070312 1445.488281 1066.320312 1440.222656 1066.320312 1434.070312 L 1066.320312 1404.308594 C 1066.320312 1397.941406 1067.078125 1392.3125 1068.621094 1387.425781 C 1070.160156 1382.53125 1072.851562 1378.496094 1076.699219 1375.3125 C 1080.539062 1372.128906 1085.75 1369.941406 1092.339844 1368.753906 C 1098.710938 1367.605469 1103.738281 1367.757812 1107.441406 1369.214844 C 1111.140625 1370.671875 1113.789062 1373.191406 1115.398438 1376.777344 C 1117.011719 1380.367188 1117.820312 1384.835938 1117.820312 1390.183594 L 1117.820312 1395.34375 L 1100.140625 1398.535156 L 1100.140625 1392.273438 C 1100.140625 1389.929688 1099.988281 1387.894531 1099.699219 1386.148438 C 1099.410156 1384.410156 1098.730469 1383.121094 1097.671875 1382.289062 C 1096.609375 1381.457031 1094.910156 1381.246094 1092.558594 1381.671875 C 1090.148438 1382.109375 1088.390625 1383.046875 1087.289062 1384.492188 C 1086.191406 1385.933594 1085.5 1387.652344 1085.210938 1389.644531 C 1084.910156 1391.636719 1084.769531 1393.730469 1084.769531 1395.929688 L 1084.769531 1435.351562 C 1084.769531 1437.839844 1084.988281 1440.03125 1085.429688 1441.933594 C 1085.859375 1443.828125 1086.691406 1445.21875 1087.898438 1446.101562 C 1089.109375 1446.980469 1090.839844 1447.214844 1093.109375 1446.804688 C 1095.378906 1446.394531 1097.140625 1445.492188 1098.378906 1444.09375 C 1099.628906 1442.695312 1100.488281 1440.949219 1100.960938 1438.851562 C 1101.441406 1436.753906 1101.679688 1434.425781 1101.679688 1431.859375 L 1101.679688 1422.414062 L 1093 1423.980469 L 1093 1413 L 1118.039062 1408.484375 L 1118.039062 1454.164062 L 1106.179688 1456.308594 L 1105.078125 1448.484375 C 1103.910156 1451.410156 1102.148438 1453.957031 1099.808594 1456.136719 C 1097.46875 1458.320312 1094.320312 1459.761719 1090.371094 1460.476562 Z M 1180.960938 1444.015625 C 1175.46875 1445.007812 1170.898438 1444.820312 1167.230469 1443.472656 C 1163.578125 1442.117188 1160.808594 1439.582031 1158.941406 1435.855469 C 1157.078125 1432.128906 1156 1427.140625 1155.699219 1420.898438 L 1171.300781 1415.449219 C 1171.449219 1419.078125 1171.828125 1422.070312 1172.449219 1424.410156 C 1173.070312 1426.75 1174.03125 1428.410156 1175.308594 1429.382812 C 1176.589844 1430.359375 1178.179688 1430.679688 1180.078125 1430.335938 C 1182.429688 1429.914062 1184.019531 1428.894531 1184.859375 1427.273438 C 1185.699219 1425.65625 1186.121094 1423.902344 1186.121094 1421.996094 C 1186.121094 1418.261719 1185.230469 1415.296875 1183.429688 1413.09375 C 1181.640625 1410.890625 1179.28125 1408.773438 1176.351562 1406.738281 L 1167.128906 1400.386719 C 1163.828125 1398.199219 1161.140625 1395.535156 1159.050781 1392.398438 C 1156.96875 1389.261719 1155.929688 1385.128906 1155.929688 1380.003906 C 1155.929688 1372.6875 1158.070312 1366.679688 1162.351562 1361.992188 C 1166.628906 1357.300781 1172.511719 1354.28125 1179.980469 1352.933594 C 1184.441406 1352.125 1188.101562 1352.199219 1190.960938 1353.144531 C 1193.808594 1354.09375 1196.03125 1355.65625 1197.601562 1357.824219 C 1199.171875 1359.992188 1200.269531 1362.464844 1200.898438 1365.246094 C 1201.519531 1368.023438 1201.898438 1370.828125 1202.050781 1373.65625 L 1186.558594 1378.757812 C 1186.410156 1376.074219 1186.179688 1373.738281 1185.851562 1371.75 C 1185.519531 1369.757812 1184.859375 1368.265625 1183.871094 1367.273438 C 1182.878906 1366.28125 1181.398438 1365.964844 1179.429688 1366.320312 C 1177.300781 1366.703125 1175.730469 1367.777344 1174.699219 1369.535156 C 1173.679688 1371.292969 1173.160156 1373.125 1173.160156 1375.027344 C 1173.160156 1378.175781 1173.878906 1380.625 1175.308594 1382.386719 C 1176.738281 1384.136719 1178.691406 1385.890625 1181.179688 1387.632812 L 1190.191406 1393.914062 C 1193.921875 1396.464844 1197.121094 1399.566406 1199.800781 1403.222656 C 1202.46875 1406.875 1203.808594 1411.742188 1203.808594 1417.816406 C 1203.808594 1421.988281 1202.851562 1425.933594 1200.949219 1429.644531 C 1199.050781 1433.355469 1196.390625 1436.46875 1192.988281 1438.988281 C 1189.578125 1441.503906 1185.570312 1443.183594 1180.960938 1444.015625 Z M 1238.171875 1433.683594 C 1231.660156 1434.859375 1226.5 1434.621094 1222.691406 1432.964844 C 1218.878906 1431.308594 1216.160156 1428.453125 1214.511719 1424.394531 C 1212.859375 1420.335938 1212.039062 1415.269531 1212.039062 1409.191406 L 1212.039062 1376.023438 C 1212.039062 1369.949219 1212.859375 1364.605469 1214.511719 1359.988281 C 1216.160156 1355.367188 1218.878906 1351.585938 1222.691406 1348.625 C 1226.5 1345.667969 1231.660156 1343.601562 1238.171875 1342.425781 C 1244.769531 1341.238281 1249.980469 1341.449219 1253.828125 1343.0625 C 1257.671875 1344.675781 1260.410156 1347.46875 1262.058594 1351.457031 C 1263.710938 1355.441406 1264.53125 1360.472656 1264.53125 1366.546875 L 1264.53125 1399.714844 C 1264.53125 1405.789062 1263.710938 1411.15625 1262.058594 1415.808594 C 1260.410156 1420.464844 1257.671875 1424.308594 1253.828125 1427.347656 C 1249.980469 1430.382812 1244.769531 1432.496094 1238.171875 1433.683594 Z M 1238.171875 1420.613281 C 1240.519531 1420.191406 1242.238281 1419.351562 1243.339844 1418.089844 C 1244.429688 1416.832031 1245.171875 1415.273438 1245.539062 1413.410156 C 1245.898438 1411.554688 1246.078125 1409.597656 1246.078125 1407.546875 L 1246.078125 1365.488281 C 1246.078125 1363.4375 1245.898438 1361.570312 1245.539062 1359.875 C 1245.171875 1358.1875 1244.429688 1356.910156 1243.339844 1356.042969 C 1242.238281 1355.183594 1240.519531 1354.960938 1238.171875 1355.382812 C 1235.980469 1355.78125 1234.328125 1356.609375 1233.230469 1357.867188 C 1232.128906 1359.128906 1231.398438 1360.671875 1231.039062 1362.492188 C 1230.671875 1364.316406 1230.488281 1366.253906 1230.488281 1368.304688 L 1230.488281 1410.363281 C 1230.488281 1412.410156 1230.648438 1414.304688 1230.980469 1416.039062 C 1231.308594 1417.773438 1232.03125 1419.074219 1233.128906 1419.9375 C 1234.21875 1420.796875 1235.910156 1421.023438 1238.171875 1420.613281 Z M 1301.429688 1422.265625 C 1294.910156 1423.441406 1289.75 1423.203125 1285.941406 1421.546875 C 1282.140625 1419.890625 1279.410156 1417.03125 1277.761719 1412.972656 C 1276.109375 1408.917969 1275.289062 1403.851562 1275.289062 1397.773438 L 1275.289062 1364.605469 C 1275.289062 1358.53125 1276.109375 1353.1875 1277.761719 1348.566406 C 1279.410156 1343.949219 1282.140625 1340.167969 1285.941406 1337.207031 C 1289.75 1334.25 1294.910156 1332.183594 1301.429688 1331.007812 C 1308.019531 1329.816406 1313.230469 1330.027344 1317.078125 1331.640625 C 1320.921875 1333.253906 1323.660156 1336.050781 1325.308594 1340.035156 C 1326.960938 1344.023438 1327.78125 1349.054688 1327.78125 1355.128906 L 1327.78125 1388.296875 C 1327.78125 1394.371094 1326.960938 1399.738281 1325.308594 1404.390625 C 1323.660156 1409.046875 1320.921875 1412.882812 1317.078125 1415.925781 C 1313.230469 1418.960938 1308.019531 1421.074219 1301.429688 1422.265625 Z M 1301.429688 1409.195312 C 1303.769531 1408.773438 1305.488281 1407.929688 1306.589844 1406.671875 C 1307.691406 1405.414062 1308.421875 1403.855469 1308.789062 1401.992188 C 1309.148438 1400.132812 1309.339844 1398.179688 1309.339844 1396.128906 L 1309.339844 1354.070312 C 1309.339844 1352.019531 1309.148438 1350.144531 1308.789062 1348.457031 C 1308.421875 1346.765625 1307.691406 1345.492188 1306.589844 1344.625 C 1305.488281 1343.761719 1303.769531 1343.542969 1301.429688 1343.964844 C 1299.230469 1344.363281 1297.589844 1345.191406 1296.488281 1346.449219 C 1295.390625 1347.710938 1294.648438 1349.253906 1294.289062 1351.074219 C 1293.921875 1352.898438 1293.738281 1354.835938 1293.738281 1356.886719 L 1293.738281 1398.945312 C 1293.738281 1400.992188 1293.910156 1402.886719 1294.238281 1404.621094 C 1294.558594 1406.355469 1295.28125 1407.652344 1296.378906 1408.519531 C 1297.46875 1409.378906 1299.160156 1409.605469 1301.429688 1409.195312 Z M 1339.859375 1414.117188 L 1339.859375 1325.167969 L 1352.488281 1322.890625 L 1372.261719 1365.664062 L 1372.261719 1319.320312 L 1387.191406 1316.625 L 1387.191406 1405.574219 L 1375.109375 1407.753906 L 1355.351562 1362.121094 L 1355.351562 1411.320312 L 1339.859375 1414.117188 "/>
</svg>
